<?xml version="1.0" standalone="no"?>
<!DOCTYPE svg PUBLIC "-//W3C//DTD SVG 20010904//EN"
 "http://www.w3.org/TR/2001/REC-SVG-20010904/DTD/svg10.dtd">
<svg version="1.0" xmlns="http://www.w3.org/2000/svg"
 width="1024.000000pt" height="1024.000000pt" viewBox="0 0 1024.000000 1024.000000"
 preserveAspectRatio="xMidYMid meet">
<metadata>
Created by potrace 1.14, written by Peter Selinger 2001-2017
</metadata>
<g transform="translate(0.000000,1024.000000) scale(0.100000,-0.100000)"
fill="#000000" stroke="none">
<path d="M3764 7887 c7 -18 70 -153 140 -301 69 -147 126 -270 126 -273 0 -2
24 -55 54 -116 30 -62 74 -157 99 -212 25 -55 66 -142 91 -193 25 -51 46 -95
46 -97 0 -3 23 -52 50 -110 28 -58 72 -151 99 -207 27 -57 56 -120 64 -140
l15 -37 -231 -116 c-128 -63 -257 -129 -287 -145 -30 -15 -82 -41 -115 -57
-33 -16 -177 -89 -321 -161 -143 -73 -266 -132 -272 -132 -14 0 -37 -25 -126
-135 -32 -38 -110 -135 -174 -214 -64 -79 -135 -167 -157 -195 -22 -29 -49
-62 -60 -73 -11 -12 -40 -48 -65 -79 -25 -31 -61 -75 -81 -98 -19 -22 -46 -57
-59 -76 -13 -19 -58 -75 -100 -125 -42 -49 -97 -118 -122 -152 l-47 -62 42
-19 c23 -10 69 -29 102 -42 33 -13 125 -49 205 -81 80 -32 267 -106 415 -165
231 -92 362 -145 450 -184 11 -5 85 -34 165 -65 80 -31 159 -63 175 -70 121
-54 156 -69 205 -87 30 -11 73 -28 95 -38 145 -62 241 -102 480 -201 149 -61
310 -129 360 -150 l89 -37 111 107 c60 59 153 147 205 196 52 49 128 120 169
159 41 39 115 107 165 151 50 44 120 108 155 140 36 33 99 91 140 129 42 38
101 92 132 120 103 95 234 212 274 246 22 19 72 64 111 100 38 36 92 85 120
109 97 87 234 212 257 234 12 12 54 49 92 82 38 33 76 67 85 75 9 8 61 54 117
103 101 88 137 127 165 182 30 60 202 371 224 407 13 21 24 40 24 44 0 13 83
144 92 144 5 0 7 4 3 9 -3 5 2 17 11 25 8 9 12 16 8 16 -4 0 1 9 11 20 10 11
23 17 29 13 7 -4 7 -1 -1 7 -9 10 -6 21 13 51 13 21 24 40 24 42 0 7 142 253
155 267 7 8 16 25 19 37 8 24 4 26 -79 37 -22 3 -112 18 -200 32 -214 34 -655
99 -975 144 -306 43 -500 71 -585 86 -49 8 -140 20 -201 27 l-111 13 486 -486
c593 -593 981 -988 981 -1000 0 -10 -104 -18 -330 -25 -96 -3 -193 -8 -215
-10 -22 -3 -78 -7 -125 -10 -47 -3 -227 -17 -400 -30 -173 -14 -430 -34 -570
-45 -140 -11 -277 -23 -305 -25 -27 -3 -104 -10 -170 -15 -66 -5 -223 -18
-350 -30 -126 -11 -263 -23 -302 -27 -40 -3 -73 -3 -73 1 0 5 16 29 36 54 19
26 66 88 103 137 37 50 107 142 156 205 49 63 118 153 154 200 36 47 108 139
160 205 53 66 105 131 116 146 94 123 540 671 607 745 18 21 18 21 -79 72
-261 138 -411 219 -428 232 -5 4 -77 42 -160 85 -82 43 -217 114 -300 158
-180 96 -247 132 -425 225 -74 39 -162 85 -195 102 -33 18 -96 51 -140 74
-161 85 -300 159 -310 166 -5 4 -18 10 -28 13 -16 6 -16 4 -3 -26z"/>
<path d="M53 6199 c15 -19 52 -70 81 -114 150 -227 295 -445 327 -492 42 -61
262 -390 289 -433 37 -59 290 -432 360 -532 34 -49 68 -88 76 -88 24 0 47 14
277 177 119 84 274 192 345 238 183 122 192 129 189 140 -4 13 -177 117 -407
245 -102 56 -219 121 -260 145 -74 42 -298 169 -615 348 -88 49 -185 105 -217
123 -31 19 -58 34 -61 34 -9 0 -124 67 -197 115 -218 141 -230 147 -187 94z"/>
<path d="M7825 5990 c-3 -5 -1 -10 4 -10 6 0 11 5 11 10 0 6 -2 10 -4 10 -3 0
-8 -4 -11 -10z"/>
<path d="M7836 5858 c3 -5 10 -6 15 -3 13 9 11 12 -6 12 -8 0 -12 -4 -9 -9z"/>
<path d="M9642 5584 c-14 -16 -5 -18 17 -5 7 5 9 11 5 14 -5 3 -15 -1 -22 -9z"/>
<path d="M1193 4491 c-12 -21 -49 -86 -83 -142 -62 -105 -86 -143 -265 -426
-55 -87 -104 -166 -110 -175 -5 -10 -31 -51 -56 -91 -25 -39 -94 -151 -154
-247 -213 -345 -212 -344 -307 -490 -74 -113 -156 -241 -173 -269 -4 -8 28 14
72 50 45 35 107 84 139 109 31 25 101 81 155 125 89 73 143 117 344 280 39 31
113 89 165 130 52 41 174 137 270 214 96 76 207 164 245 194 39 30 106 84 150
118 132 104 350 267 527 394 92 65 166 120 165 122 -3 2 -58 12 -274 47 -160
27 -708 96 -757 96 -27 0 -36 -6 -53 -39z"/>
<path d="M8055 3755 c-67 -14 -223 -43 -300 -56 -48 -8 -269 -46 -405 -70 -67
-11 -410 -76 -560 -105 -47 -9 -112 -20 -145 -25 -33 -5 -94 -16 -135 -24 -41
-9 -118 -24 -170 -35 -52 -10 -158 -31 -235 -46 -77 -15 -141 -28 -143 -29 -3
-3 75 -159 102 -205 35 -58 157 -281 196 -360 l42 -84 -1 -191 c-2 -270 -16
-707 -27 -823 -8 -80 1 -77 87 26 35 42 89 104 119 137 31 33 72 80 92 105 19
25 49 59 65 77 16 17 58 64 93 105 59 67 83 94 195 218 22 25 73 83 114 130
41 47 77 87 80 90 3 3 33 37 66 75 32 39 80 93 106 120 73 79 291 324 327 369
18 23 38 46 45 51 7 6 41 44 77 85 36 41 70 80 76 85 6 6 59 64 117 130 58 66
129 145 157 175 69 74 77 90 48 89 -13 0 -50 -7 -83 -14z"/>
<path d="M9920 80 l0 -80 160 0 160 0 0 80 0 80 -160 0 -160 0 0 -80z"/>
</g>
</svg>
